<?xml version="1.0" encoding="UTF-8"?>
<svg id="Layer_2" data-name="Layer 2" xmlns="http://www.w3.org/2000/svg" viewBox="0 0 231.71 283">
  <g id="gift">
    <g>
      <rect x="136.93" y="99.16" width="13.61" height="9.72"/>
      <polygon points="135.53 36.94 134.44 36.94 133.79 38.89 136.18 38.89 135.53 36.94"/>
      <rect x="134.99" y="79.72" width="15.55" height="3.89"/>
      <path d="m138.91,31.92c0-.27-.03-.53-.03-.81-.07-4.66,1.84-9.13,5.25-12.3-.97-5.23-4.83-9.09-9.29-9.09-5.28,0-9.57,5.23-9.57,11.67s4.29,11.67,9.57,11.67c1.43-.01,2.84-.41,4.07-1.14h0Z"/>
      <polygon points="151.29 48.61 153.68 48.61 153.03 46.66 151.94 46.66 151.29 48.61"/>
      <path d="m152.33,15.55c1.62,0,3.22.35,4.71,1,.79-2.87,2.39-5.46,4.59-7.47-.98-5.23-4.83-9.09-9.3-9.09s-8.32,3.86-9.3,9.09c2.21,2.01,3.8,4.59,4.59,7.47,1.48-.66,3.09-1,4.71-1h0Z"/>
      <ellipse cx="152.33" cy="31.11" rx="9.57" ry="11.67"/>
      <rect x="136.93" y="87.5" width="13.61" height="7.78"/>
      <path d="m147.67,75.83l-3.4-3.28c-.42-.4-.98-.61-1.56-.61-.18,0-.37.02-.55.06-.56.11-1.03.51-1.22,1.04-.07.21-.11.43-.11.66.03,1.21,1.03,2.15,2.23,2.13h4.61Z"/>
      <rect x="154.43" y="79.72" width="15.55" height="3.89"/>
      <polygon points="169.44 36.94 168.79 38.89 171.17 38.89 170.53 36.94 169.44 36.94"/>
      <path d="m169.83,9.72c-4.47,0-8.31,3.85-9.29,9.09,3.41,3.17,5.33,7.64,5.25,12.3,0,.27-.02.54-.03.81,1.23.73,2.64,1.12,4.07,1.14,5.28,0,9.57-5.23,9.57-11.67s-4.29-11.67-9.57-11.67h0Z"/>
      <rect x="154.43" y="87.5" width="13.61" height="7.78"/>
      <rect x="154.43" y="99.16" width="13.61" height="9.72"/>
      <path d="m162.82,72c-.75-.18-1.55.02-2.11.54l-3.4,3.28h4.61c1.21.03,2.2-.92,2.24-2.13,0-.22-.03-.45-.11-.66-.2-.53-.66-.92-1.22-1.04h0Z"/>
      <polygon points="154.43 75.83 154.43 64.77 169.64 42.81 166.44 40.59 154.43 57.94 154.43 52.5 150.54 52.5 150.54 57.94 138.53 40.59 135.33 42.81 150.54 64.77 150.54 75.83 154.43 75.83"/>
    </g>
  </g>
  <g id="dots">
    <g>
      <circle cx="55.86" cy="114.46" r="2.44"/>
      <path d="m57.59,106.65c.46-.46.72-1.07.72-1.72s-.25-1.26-.72-1.72c-.92-.92-2.53-.92-3.45,0-.46.46-.72,1.07-.72,1.72s.25,1.26.72,1.72c.48.48,1.1.71,1.72.71s1.25-.24,1.72-.71h0Z"/>
      <path d="m47.67,112.02c.62,0,1.25-.24,1.72-.71.46-.46.72-1.07.72-1.72s-.25-1.26-.72-1.72c-.95-.95-2.5-.95-3.45,0-.46.46-.72,1.07-.72,1.72s.25,1.26.72,1.72c.48.48,1.1.71,1.72.71h0Z"/>
      <path d="m45.95,121.04c.46.46,1.07.72,1.72.72s1.26-.25,1.72-.72c.46-.46.72-1.07.72-1.72s-.25-1.26-.72-1.72c-.92-.92-2.53-.92-3.45,0-.46.46-.72,1.07-.72,1.72,0,.65.26,1.27.72,1.72h0Z"/>
      <path d="m54.14,125.72c.46.46,1.07.72,1.72.72s1.26-.25,1.72-.72c.46-.46.72-1.07.72-1.72s-.25-1.26-.72-1.72c-.92-.92-2.53-.92-3.45,0-.46.46-.72,1.07-.72,1.72s.26,1.27.72,1.72h0Z"/>
      <path d="m62.31,121.04c.46.46,1.07.72,1.72.72s1.26-.25,1.72-.72c.46-.46.72-1.07.72-1.72s-.25-1.26-.72-1.72c-.92-.92-2.53-.92-3.45,0-.46.46-.72,1.07-.72,1.72s.25,1.27.72,1.72h0Z"/>
      <path d="m64.03,112.02c.65,0,1.26-.25,1.72-.72.46-.46.72-1.07.72-1.72s-.25-1.26-.72-1.72c-.95-.95-2.5-.95-3.45,0-.46.46-.72,1.07-.72,1.72s.25,1.26.72,1.72c.46.46,1.07.72,1.72.72h0Z"/>
      <path d="m45.62,100.79c.37.22.79.33,1.22.33.21,0,.42-.03.64-.08.63-.17,1.16-.57,1.48-1.14.32-.56.41-1.22.24-1.85-.17-.63-.57-1.16-1.14-1.48-1.17-.67-2.66-.27-3.33.89-.67,1.17-.27,2.66.89,3.33h0Z"/>
      <path d="m54.64,98.28c.38.22.8.32,1.22.32.84,0,1.67-.44,2.12-1.22.67-1.17.27-2.66-.89-3.33-1.17-.67-2.66-.27-3.33.89-.67,1.17-.27,2.66.89,3.34h0Z"/>
      <path d="m38.89,107.37c.38.22.8.33,1.22.33.84,0,1.67-.44,2.12-1.22.67-1.17.27-2.66-.89-3.33-.56-.33-1.22-.41-1.85-.24-.63.17-1.16.57-1.48,1.14-.67,1.17-.27,2.66.89,3.33h0Z"/>
      <path d="m38.57,116.79c.63-.17,1.16-.57,1.48-1.14.67-1.17.27-2.66-.89-3.33-1.17-.67-2.66-.27-3.33.89-.67,1.17-.27,2.66.89,3.33.37.22.79.33,1.22.33.21,0,.42-.03.64-.08h0Z"/>
      <path d="m38.89,125.51c.38.22.8.32,1.22.32.84,0,1.67-.44,2.12-1.22.67-1.17.27-2.66-.89-3.33-.56-.32-1.22-.41-1.85-.24-.63.17-1.16.57-1.48,1.14-.67,1.17-.27,2.66.89,3.34h0Z"/>
      <path d="m45.67,132.2c.37.22.79.33,1.22.33.21,0,.42-.03.64-.08.63-.17,1.16-.57,1.48-1.14.67-1.17.27-2.66-.89-3.33s-2.66-.27-3.33.89c-.32.56-.41,1.22-.24,1.85.17.63.57,1.16,1.14,1.48h0Z"/>
      <path d="m54.64,134.82c.38.22.8.32,1.22.32.84,0,1.67-.44,2.12-1.22.67-1.17.27-2.66-.89-3.33-1.17-.67-2.66-.27-3.33.89-.67,1.17-.27,2.66.89,3.34h0Z"/>
      <path d="m63.76,132.2c.37.22.79.33,1.22.33.21,0,.42-.03.64-.08.63-.17,1.16-.57,1.48-1.14.32-.56.41-1.22.24-1.85-.17-.63-.57-1.16-1.14-1.48-1.17-.67-2.66-.27-3.33.89-.67,1.17-.27,2.66.89,3.33h0Z"/>
      <path d="m73.9,124.87c.32-.56.41-1.22.24-1.85-.17-.63-.57-1.16-1.14-1.48-1.17-.67-2.66-.27-3.33.89-.67,1.17-.27,2.66.89,3.33.38.22.8.32,1.22.32.85,0,1.67-.43,2.12-1.22h0Z"/>
      <path d="m76.07,115.65c.32-.56.41-1.22.24-1.85-.17-.63-.57-1.16-1.14-1.48-.56-.32-1.22-.41-1.85-.24-.63.17-1.16.57-1.48,1.14-.32.56-.41,1.22-.24,1.85.17.63.57,1.16,1.14,1.48.37.22.79.33,1.22.33.21,0,.42-.03.64-.08.63-.17,1.15-.57,1.48-1.14h0Z"/>
      <path d="m73.01,103.15c-.56-.33-1.22-.41-1.85-.24-.63.17-1.16.57-1.48,1.14-.67,1.17-.27,2.66.89,3.33.38.22.8.33,1.22.33.84,0,1.67-.44,2.12-1.22.32-.56.41-1.22.24-1.85-.17-.63-.57-1.16-1.14-1.48h0Z"/>
      <path d="m62.86,97.46c-.67,1.17-.27,2.66.89,3.33.37.22.79.33,1.22.33.21,0,.42-.03.64-.08.63-.17,1.16-.57,1.48-1.14.32-.56.41-1.22.24-1.85-.17-.63-.57-1.16-1.14-1.48-1.17-.67-2.66-.27-3.33.89h0Z"/>
      <path d="m81.45,112.73c-.95.95-.95,2.5,0,3.45.46.46,1.07.72,1.72.72s1.26-.25,1.72-.72c.46-.46.72-1.07.72-1.72s-.25-1.26-.72-1.72c-.92-.92-2.53-.92-3.45,0h0Z"/>
      <path d="m69.62,140.58c.65,0,1.26-.25,1.72-.72.46-.46.72-1.07.72-1.72s-.25-1.26-.72-1.72c-.92-.92-2.53-.92-3.45,0-.46.46-.72,1.07-.72,1.72s.25,1.26.72,1.72c.46.46,1.07.72,1.72.72h0Z"/>
      <path d="m51.01,143.79c.62,0,1.25-.24,1.72-.71.46-.46.72-1.07.72-1.72s-.25-1.26-.72-1.72c-.92-.92-2.53-.92-3.45,0-.95.95-.95,2.5,0,3.45.48.47,1.1.71,1.72.71h0Z"/>
      <path d="m28.56,121.93c-.95.95-.95,2.5,0,3.45.48.48,1.1.71,1.72.71s1.25-.24,1.72-.71c.95-.95.95-2.5,0-3.45-.95-.95-2.5-.95-3.45,0h0Z"/>
      <path d="m49.28,85.84c-.95.95-.95,2.5,0,3.45.46.46,1.07.72,1.72.72s1.26-.25,1.72-.72c.95-.95.95-2.5,0-3.45-.92-.92-2.53-.92-3.45,0h0Z"/>
      <path d="m69.62,93.21c.65,0,1.26-.25,1.72-.72.46-.46.72-1.07.72-1.72s-.25-1.26-.72-1.72c-.95-.95-2.5-.95-3.45,0-.46.46-.72,1.07-.72,1.72s.25,1.26.72,1.72c.46.46,1.07.72,1.72.72h0Z"/>
      <path d="m76.67,99.1c.63,0,1.25-.24,1.72-.71.95-.95.95-2.5,0-3.45-.95-.95-2.5-.95-3.45,0-.95.95-.95,2.5,0,3.45.48.48,1.1.71,1.72.71h0Z"/>
      <path d="m79.89,103.54c-.95.95-.95,2.5,0,3.45.48.48,1.1.71,1.72.71s1.25-.24,1.72-.71c.95-.95.95-2.5,0-3.45-.92-.92-2.53-.92-3.45,0h0Z"/>
      <path d="m79.89,125.38c.48.48,1.1.71,1.72.71s1.25-.24,1.72-.71c.95-.95.95-2.5,0-3.45-.95-.95-2.5-.95-3.45,0-.95.95-.95,2.5,0,3.45h0Z"/>
      <path d="m76.67,134.3c.63,0,1.25-.24,1.72-.71.95-.95.95-2.5,0-3.45-.95-.95-2.5-.95-3.45,0-.95.95-.95,2.5,0,3.45.48.48,1.1.71,1.72.71h0Z"/>
      <path d="m60.5,143.79c.62,0,1.25-.24,1.72-.71.95-.95.95-2.5,0-3.45-.92-.92-2.53-.92-3.45,0-.95.95-.95,2.5,0,3.45.48.47,1.1.71,1.72.71h0Z"/>
      <path d="m35.06,134.3c.62,0,1.25-.24,1.72-.71.95-.95.95-2.5,0-3.45-.95-.95-2.5-.95-3.45,0-.95.95-.95,2.5,0,3.45.48.48,1.1.71,1.72.71h0Z"/>
      <path d="m28.56,116.87c.62,0,1.25-.24,1.72-.71.95-.95.95-2.5,0-3.45-.95-.95-2.5-.95-3.45,0-.95.95-.95,2.5,0,3.45.48.47,1.1.71,1.72.71h0Z"/>
      <path d="m28.56,106.65c.48.48,1.1.71,1.72.71s1.25-.24,1.72-.71c.46-.46.72-1.07.72-1.72s-.25-1.26-.72-1.72c-.92-.92-2.53-.92-3.45,0-.95.95-.95,2.5,0,3.45h0Z"/>
      <path d="m33.33,98.39c.46.46,1.07.72,1.72.72s1.26-.25,1.72-.72c.46-.46.72-1.07.72-1.72s-.25-1.26-.72-1.72c-.95-.95-2.5-.95-3.45,0-.95.95-.95,2.5,0,3.45h0Z"/>
      <path d="m40.56,89.05c-.95.95-.95,2.5,0,3.45.48.48,1.1.71,1.72.71s1.25-.24,1.72-.71c.95-.95.95-2.5,0-3.45-.95-.95-2.5-.95-3.45,0h0Z"/>
      <path d="m42.1,140.58c.65,0,1.26-.25,1.72-.72.46-.46.72-1.07.72-1.72s-.25-1.26-.72-1.72c-.92-.92-2.53-.92-3.45,0-.95.95-.95,2.5,0,3.45.46.46,1.07.72,1.72.72h0Z"/>
      <path d="m60.5,90c.65,0,1.26-.25,1.72-.72.95-.95.95-2.5,0-3.45-.92-.92-2.53-.92-3.45,0-.95.95-.95,2.5,0,3.45.46.46,1.07.72,1.72.72h0Z"/>
      <path d="m39.4,78.92c-.95.95-.95,2.5,0,3.45.48.48,1.1.71,1.72.71s1.25-.24,1.72-.71c.95-.95.95-2.5,0-3.45-.95-.95-2.49-.95-3.45,0h0Z"/>
      <path d="m30.73,83.99c-.95.95-.95,2.5,0,3.45.46.46,1.07.72,1.72.72s1.26-.25,1.72-.72c.95-.95.95-2.5,0-3.45-.92-.92-2.53-.92-3.45,0h0Z"/>
      <path d="m28.14,92.95c0-.65-.25-1.26-.72-1.72-.95-.95-2.5-.95-3.45,0-.46.46-.72,1.07-.72,1.72s.25,1.26.72,1.72c.48.48,1.1.71,1.72.71s1.25-.24,1.72-.71c.46-.46.72-1.08.72-1.72h0Z"/>
      <path d="m21.37,104.32c.62,0,1.25-.24,1.72-.71.95-.95.95-2.5,0-3.45-.95-.95-2.5-.95-3.45,0-.95.95-.95,2.5,0,3.45.48.47,1.1.71,1.72.71h0Z"/>
      <path d="m17.47,110.03c-.46.46-.72,1.07-.72,1.72s.25,1.26.72,1.72c.48.48,1.1.71,1.72.71s1.25-.24,1.72-.71c.46-.46.72-1.07.72-1.72s-.25-1.26-.72-1.72c-.95-.95-2.5-.95-3.45,0h0Z"/>
      <path d="m21.61,119.76c-.95-.95-2.5-.95-3.45,0-.95.95-.95,2.5,0,3.45.48.48,1.1.71,1.72.71s1.25-.24,1.72-.71c.95-.95.95-2.5,0-3.45h0Z"/>
      <path d="m21.26,129.26c-.46.46-.72,1.07-.72,1.72s.25,1.26.72,1.72c.46.46,1.07.72,1.72.72s1.26-.25,1.72-.72c.46-.46.72-1.07.72-1.72s-.25-1.26-.72-1.72c-.92-.92-2.53-.92-3.45,0h0Z"/>
      <path d="m30.8,141.2c.95-.95.95-2.5,0-3.45-.95-.95-2.5-.95-3.45,0-.46.46-.72,1.07-.72,1.72s.25,1.26.72,1.72c.46.46,1.07.72,1.72.72s1.27-.25,1.72-.72h0Z"/>
      <path d="m38.52,143.96c-.92-.92-2.53-.92-3.45,0-.46.46-.72,1.07-.72,1.72s.25,1.26.72,1.72c.46.46,1.07.72,1.72.72s1.26-.25,1.72-.72c.95-.95.95-2.5,0-3.45h0Z"/>
      <path d="m44.17,147.91c-.95.95-.95,2.5,0,3.45.48.48,1.1.71,1.72.71s1.25-.24,1.72-.71c.95-.95.95-2.5,0-3.45-.95-.95-2.5-.95-3.45,0h0Z"/>
      <path d="m54.14,149.31c-.95.95-.95,2.5,0,3.45.48.48,1.1.71,1.72.71s1.25-.24,1.72-.71c.95-.95.95-2.5,0-3.45-.95-.95-2.5-.95-3.45,0h0Z"/>
      <path d="m64.11,147.91c-.95.95-.95,2.5,0,3.45.48.48,1.1.71,1.72.71s1.25-.24,1.72-.71c.95-.95.95-2.5,0-3.45-.95-.95-2.5-.95-3.45,0h0Z"/>
      <path d="m73.15,143.96c-.95.95-.95,2.5,0,3.45.46.46,1.07.72,1.72.72s1.26-.25,1.72-.72c.95-.95.95-2.5,0-3.45-.92-.92-2.53-.92-3.45,0h0Z"/>
      <path d="m80.86,137.46c-.46.46-.72,1.07-.72,1.72s.25,1.26.72,1.72c.48.48,1.1.71,1.72.71s1.25-.24,1.72-.71c.46-.46.72-1.07.72-1.72s-.25-1.26-.72-1.72c-.95-.95-2.5-.95-3.45,0h0Z"/>
      <path d="m88.38,133.8c.62,0,1.25-.24,1.72-.71.95-.95.95-2.5,0-3.45-.95-.95-2.5-.95-3.45,0-.95.95-.95,2.5,0,3.45.48.48,1.1.71,1.72.71h0Z"/>
      <path d="m93.61,120.1c-.95-.95-2.5-.95-3.45,0-.95.95-.95,2.5,0,3.45.48.48,1.1.71,1.72.71s1.25-.24,1.72-.71c.95-.95.95-2.5,0-3.45h0Z"/>
      <path d="m90.81,110.03c-.95.95-.95,2.5,0,3.45.48.48,1.1.71,1.72.71s1.25-.24,1.72-.71c.95-.95.95-2.5,0-3.45-.93-.92-2.53-.92-3.45,0h0Z"/>
      <path d="m88.82,100.16c-.95.95-.95,2.5,0,3.45.48.48,1.1.71,1.72.71s1.25-.24,1.72-.71c.95-.95.95-2.5,0-3.45-.95-.95-2.5-.95-3.45,0h0Z"/>
      <path d="m85.95,95.38c.65,0,1.26-.25,1.72-.72.95-.95.95-2.5,0-3.45-.95-.95-2.5-.95-3.45,0-.95.95-.95,2.5,0,3.45.46.46,1.07.72,1.72.72h0Z"/>
      <path d="m78.84,88.15c.65,0,1.26-.25,1.72-.72.46-.46.72-1.07.72-1.72s-.25-1.26-.72-1.72c-.92-.92-2.53-.92-3.45,0-.46.46-.72,1.07-.72,1.72s.25,1.26.72,1.72c.46.46,1.08.72,1.72.72h0Z"/>
      <path d="m70.53,83.08c.63,0,1.25-.24,1.72-.71.95-.95.95-2.5,0-3.45-.95-.95-2.5-.95-3.45,0-.95.95-.95,2.5,0,3.45.48.48,1.1.71,1.72.71h0Z"/>
      <path d="m61.07,80.31c.62,0,1.25-.24,1.72-.71.46-.46.72-1.07.72-1.72s-.25-1.26-.72-1.72c-.92-.92-2.53-.92-3.45,0-.46.46-.72,1.07-.72,1.72s.25,1.26.72,1.72c.48.48,1.1.71,1.72.71h0Z"/>
      <path d="m50.81,80.31c.62,0,1.25-.24,1.72-.71.46-.46.72-1.07.72-1.72s-.25-1.26-.72-1.72c-.95-.95-2.5-.95-3.45,0-.46.46-.72,1.07-.72,1.72s.25,1.26.72,1.72c.48.48,1.1.71,1.72.71h0Z"/>
      <path d="m40.46,73.04c.62,0,1.25-.24,1.72-.71.46-.46.72-1.07.72-1.72s-.25-1.26-.72-1.72c-.92-.92-2.53-.92-3.45,0-.46.46-.72,1.07-.72,1.72s.25,1.26.72,1.72c.48.47,1.1.71,1.72.71h0Z"/>
      <path d="m31.24,77.45c.65,0,1.26-.25,1.72-.72.95-.95.95-2.5,0-3.45s-2.5-.95-3.45,0c-.46.46-.72,1.07-.72,1.72s.25,1.26.72,1.72c.46.46,1.07.72,1.72.72h0Z"/>
      <path d="m22.99,84.12c.62,0,1.25-.24,1.72-.71.46-.46.72-1.07.72-1.72s-.25-1.26-.72-1.72c-.95-.95-2.5-.95-3.45,0-.46.46-.72,1.07-.72,1.72s.25,1.26.72,1.72c.48.47,1.1.71,1.72.71h0Z"/>
      <path d="m16.41,92.17c.65,0,1.26-.25,1.72-.72.95-.95.95-2.5,0-3.45-.92-.92-2.53-.92-3.45,0-.95.95-.95,2.5,0,3.45.46.46,1.07.72,1.72.72h0Z"/>
      <path d="m12.01,101.62c.62,0,1.25-.24,1.72-.71.95-.95.95-2.5,0-3.45-.92-.92-2.53-.92-3.45,0-.95.95-.95,2.5,0,3.45.48.47,1.1.71,1.72.71h0Z"/>
      <path d="m9.84,111.7c.62,0,1.25-.24,1.72-.71.95-.95.95-2.5,0-3.45-.92-.92-2.53-.92-3.45,0-.95.95-.95,2.5,0,3.45.48.47,1.1.71,1.72.71h0Z"/>
      <path d="m11.56,121.24c.95-.95.95-2.5,0-3.45-.95-.95-2.5-.95-3.45,0-.46.46-.72,1.07-.72,1.72s.25,1.26.72,1.72c.46.46,1.07.72,1.72.72s1.27-.25,1.72-.72h0Z"/>
      <path d="m49.08,158.76c-.95.95-.95,2.5,0,3.45.48.48,1.1.71,1.72.71s1.25-.24,1.72-.71c.95-.95.95-2.5,0-3.45-.95-.95-2.5-.95-3.45,0h0Z"/>
      <path d="m59.34,158.76c-.95.95-.95,2.5,0,3.45.48.48,1.1.71,1.72.71s1.25-.24,1.72-.71c.95-.95.95-2.5,0-3.45-.95-.95-2.5-.95-3.45,0h0Z"/>
      <path d="m69.77,156.16c-.95.95-.95,2.5,0,3.45.48.48,1.1.71,1.72.71s1.25-.24,1.72-.71c.95-.95.95-2.5,0-3.45-.95-.95-2.5-.95-3.45,0h0Z"/>
      <path d="m78.68,151.82c-.95.95-.95,2.5,0,3.45.48.48,1.1.71,1.72.71s1.25-.24,1.72-.71c.95-.95.95-2.5,0-3.45-.95-.95-2.5-.95-3.45,0h0Z"/>
      <path d="m86.98,145.23c-.95.95-.95,2.5,0,3.45.48.48,1.1.71,1.72.71s1.25-.24,1.72-.71c.95-.95.95-2.5,0-3.45-.95-.95-2.5-.95-3.45,0h0Z"/>
      <path d="m93.59,137.46c-.95.95-.95,2.5,0,3.45.48.48,1.1.71,1.72.71s1.25-.24,1.72-.71c.95-.95.95-2.5,0-3.45-.95-.95-2.5-.95-3.45,0h0Z"/>
      <path d="m98,127.97c-.46.46-.72,1.07-.72,1.72s.25,1.26.72,1.72c.46.46,1.07.72,1.72.72s1.26-.25,1.72-.72c.46-.46.72-1.07.72-1.72s-.25-1.26-.72-1.72c-.93-.93-2.53-.93-3.45,0h0Z"/>
      <path d="m103.61,117.94c-.95-.95-2.5-.95-3.45,0-.95.95-.95,2.5,0,3.45.48.48,1.1.71,1.72.71s1.25-.24,1.72-.71c.95-.95.95-2.5,0-3.45h0Z"/>
      <path d="m100.16,107.53c-.95.95-.95,2.5,0,3.45.48.48,1.1.71,1.72.71s1.25-.24,1.72-.71c.95-.95.95-2.5,0-3.45-.95-.95-2.5-.95-3.45,0h0Z"/>
      <path d="m98,100.91c.48.48,1.1.71,1.72.71s1.25-.24,1.72-.71c.46-.46.72-1.07.72-1.72s-.25-1.26-.72-1.72c-.92-.92-2.53-.92-3.45,0-.46.46-.72,1.07-.72,1.72s.25,1.27.72,1.72h0Z"/>
      <path d="m94.88,92.17c.63,0,1.25-.24,1.72-.71.95-.95.95-2.5,0-3.45-.95-.95-2.5-.95-3.45,0-.95.95-.95,2.5,0,3.45.48.47,1.1.71,1.72.71h0Z"/>
      <path d="m88.7,84.38c.63,0,1.25-.24,1.72-.71.95-.95.95-2.5,0-3.45-.95-.95-2.5-.95-3.45,0-.95.95-.95,2.5,0,3.45.48.48,1.1.71,1.72.71h0Z"/>
      <path d="m80.41,77.45c.63,0,1.25-.24,1.72-.71.95-.95.95-2.5,0-3.45-.95-.95-2.5-.95-3.45,0-.95.95-.95,2.5,0,3.45.48.47,1.1.71,1.72.71h0Z"/>
      <path d="m71.02,73.04c.62,0,1.25-.24,1.72-.71.46-.46.72-1.07.72-1.72s-.25-1.26-.72-1.72c-.92-.92-2.53-.92-3.45,0-.46.46-.72,1.07-.72,1.72s.25,1.26.72,1.72c.48.47,1.1.71,1.72.71h0Z"/>
      <path d="m61.07,70.87c.62,0,1.25-.24,1.72-.71.46-.46.72-1.07.72-1.72s-.25-1.26-.72-1.72c-.92-.92-2.53-.92-3.45,0-.46.46-.72,1.07-.72,1.72s.25,1.26.72,1.72c.48.47,1.1.71,1.72.71h0Z"/>
      <path d="m50.81,70.87c.62,0,1.25-.24,1.72-.71.46-.46.72-1.07.72-1.72s-.25-1.26-.72-1.72c-.95-.95-2.5-.95-3.45,0-.46.46-.72,1.07-.72,1.72s.25,1.26.72,1.72c.48.47,1.1.71,1.72.71h0Z"/>
      <path d="m38.74,156.59c-.46.46-.72,1.07-.72,1.72s.25,1.26.72,1.72c.46.46,1.07.72,1.72.72s1.26-.25,1.72-.72c.46-.46.72-1.07.72-1.72s-.25-1.26-.72-1.72c-.92-.93-2.53-.93-3.45,0h0Z"/>
      <path d="m29.52,151.82c-.95.95-.95,2.5,0,3.45.48.48,1.1.71,1.72.71s1.25-.24,1.72-.71c.95-.95.95-2.5,0-3.45-.95-.95-2.5-.95-3.45,0h0Z"/>
      <path d="m21.26,145.62c-.95.95-.95,2.5,0,3.45.48.48,1.1.71,1.72.71s1.25-.24,1.72-.71c.95-.95.95-2.5,0-3.45-.95-.95-2.5-.95-3.45,0h0Z"/>
      <path d="m14.69,137.46c-.95.95-.95,2.5,0,3.45.48.48,1.1.71,1.72.71s1.25-.24,1.72-.71c.46-.46.72-1.07.72-1.72s-.25-1.26-.72-1.72c-.95-.95-2.5-.95-3.45,0h0Z"/>
      <path d="m13.73,127.97c-.92-.92-2.53-.92-3.45,0-.46.46-.72,1.07-.72,1.72s.25,1.26.72,1.72c.46.46,1.07.72,1.72.72s1.26-.25,1.72-.72c.95-.95.95-2.5,0-3.45h0Z"/>
    </g>
  </g>
  <g id="bear">
    <g>
      <path d="m161.88,174.7h-14.42c-1.25,0-2.02,1.35-1.4,2.43l7.21,12.49c.62,1.08,2.18,1.08,2.81,0l7.21-12.49c.62-1.08-.16-2.43-1.4-2.43h0Z"/>
      <path d="m209.6,135.23c-5.39,0-9.77-4.39-9.77-9.77s4.39-9.77,9.77-9.77,9.77,4.39,9.77,9.77-4.38,9.77-9.77,9.77Zm-1.75,105.68c-.44.85-1.42.85-1.86,0-.98-1.9-2.39-5.3-2.39-9.16,0-4.21,1.65-7.85,2.63-9.62.33-.61,1.05-.61,1.38,0,.97,1.78,2.63,5.42,2.63,9.62,0,3.86-1.4,7.25-2.39,9.16h0Zm-17.42,27.23c-.44.85-1.42.85-1.86,0-.98-1.9-2.39-5.3-2.39-9.16,0-4.21,1.65-7.85,2.63-9.62.33-.61,1.05-.61,1.38,0,.97,1.78,2.63,5.42,2.63,9.62,0,3.87-1.4,7.26-2.39,9.16h0Zm-8.97-108.04v-.3c0-2.56,2.1-4.67,4.67-4.67h.71c2.56,0,4.67,2.1,4.67,4.67v.3c0,2.56-2.1,4.67-4.67,4.67h-.71c-2.56,0-4.67-2.09-4.67-4.67Zm-8.45,80.8c-.44.85-1.42.85-1.86,0-.98-1.9-2.39-5.3-2.39-9.16,0-4.21,1.65-7.85,2.63-9.62.33-.61,1.05-.61,1.38,0,.97,1.78,2.63,5.42,2.63,9.62,0,3.86-1.4,7.25-2.39,9.16h0Zm-15.61-35.73h-5.48c-7.9,0-14.37-6.47-14.37-14.37v-24.09c0-7.9,6.47-14.37,14.37-14.37h5.48c7.9,0,14.37,6.47,14.37,14.37v24.09c.01,7.9-6.46,14.37-14.37,14.37Zm-1.81,62.97c-.44.85-1.42.85-1.86,0-.98-1.9-2.39-5.3-2.39-9.16,0-4.21,1.65-7.85,2.63-9.62.33-.61,1.05-.61,1.38,0,.97,1.78,2.63,5.42,2.63,9.62,0,3.87-1.4,7.26-2.39,9.16h0Zm-17.42-27.23c-.44.85-1.42.85-1.86,0-.98-1.9-2.39-5.3-2.39-9.16,0-4.21,1.65-7.85,2.63-9.62.33-.61,1.05-.61,1.38,0,.97,1.78,2.63,5.42,2.63,9.62,0,3.86-1.4,7.25-2.39,9.16h0Zm-10.31-79.68c0,2.56-2.1,4.67-4.67,4.67h-.71c-2.56,0-4.67-2.1-4.67-4.67v-.3c0-2.56,2.1-4.67,4.67-4.67h.71c2.56,0,4.67,2.1,4.67,4.67v.3Zm-7.11,106.92c-.44.85-1.42.85-1.86,0-.98-1.9-2.39-5.3-2.39-9.16,0-4.21,1.65-7.85,2.63-9.62.33-.61,1.05-.61,1.38,0,.97,1.78,2.63,5.42,2.63,9.62,0,3.87-1.4,7.26-2.39,9.16h0Zm-17.42-27.23c-.44.85-1.42.85-1.86,0-.98-1.9-2.39-5.3-2.39-9.16,0-4.21,1.65-7.85,2.63-9.62.33-.61,1.05-.61,1.38,0,.97,1.78,2.63,5.42,2.63,9.62,0,3.86-1.4,7.25-2.39,9.16h0Zm-13.38-115.45c0-5.39,4.39-9.77,9.77-9.77s9.77,4.39,9.77,9.77-4.39,9.77-9.77,9.77-9.77-4.39-9.77-9.77Zm141.73,0c0-12.2-9.9-22.11-22.11-22.11-10.84,0-19.86,7.82-21.73,18.13-7.08-2.75-14.75-4.28-22.76-4.28h-20.87c-8.02,0-15.69,1.53-22.76,4.28-1.87-10.31-10.89-18.13-21.73-18.13-12.2,0-22.11,9.9-22.11,22.11,0,9.23,5.67,17.14,13.71,20.45-6.52,9.94-10.34,21.8-10.34,34.52v93.18c.01,1.14.12,2.26.18,3.38h146.97c.06-1.13.17-2.24.17-3.38v-93.19c.01-12.72-3.81-24.58-10.33-34.52,8.04-3.31,13.71-11.21,13.71-20.44h0Z"/>
    </g>
  </g>
  <g id="cloud">
    <path d="m121.43,220.32c-4.92,0-9.56,1.16-13.7,3.19-2.75-27.25-25.75-48.51-53.72-48.51-29.83,0-54,24.18-54,54s24.18,54,54,54h67.43c17.3,0,31.34-14.03,31.34-31.34s-14.03-31.34-31.34-31.34h0Z"/>
  </g>
</svg>