<?xml version="1.0" encoding="UTF-8"?>
<svg id="Layer_2" data-name="Layer 2" xmlns="http://www.w3.org/2000/svg" viewBox="0 0 154.07 173.64">
  <g id="bear">
    <g>
      <path d="m84.25,71.34h-14.42c-1.25,0-2.02,1.35-1.4,2.43l7.21,12.49c.62,1.08,2.18,1.08,2.81,0l7.21-12.49c.62-1.08-.16-2.43-1.4-2.43h0Z"/>
      <path d="m131.96,31.87c-5.39,0-9.77-4.39-9.77-9.77s4.39-9.77,9.77-9.77,9.77,4.39,9.77,9.77-4.38,9.77-9.77,9.77Zm-1.75,105.68c-.44.85-1.42.85-1.86,0-.98-1.9-2.39-5.3-2.39-9.16,0-4.21,1.65-7.85,2.63-9.62.33-.61,1.05-.61,1.38,0,.97,1.78,2.63,5.42,2.63,9.62,0,3.86-1.4,7.25-2.39,9.16h0Zm-17.42,27.23c-.44.85-1.42.85-1.86,0-.98-1.9-2.39-5.3-2.39-9.16,0-4.21,1.65-7.85,2.63-9.62.33-.61,1.05-.61,1.38,0,.97,1.78,2.63,5.42,2.63,9.62,0,3.87-1.4,7.26-2.39,9.16h0Zm-8.97-108.04v-.3c0-2.56,2.1-4.67,4.67-4.67h.71c2.56,0,4.67,2.1,4.67,4.67v.3c0,2.56-2.1,4.67-4.67,4.67h-.71c-2.56,0-4.67-2.09-4.67-4.67Zm-8.45,80.8c-.44.85-1.42.85-1.86,0-.98-1.9-2.39-5.3-2.39-9.16,0-4.21,1.65-7.85,2.63-9.62.33-.61,1.05-.61,1.38,0,.97,1.78,2.63,5.42,2.63,9.62,0,3.86-1.4,7.25-2.39,9.16h0Zm-15.61-35.73h-5.48c-7.9,0-14.37-6.47-14.37-14.37v-24.09c0-7.9,6.47-14.37,14.37-14.37h5.48c7.9,0,14.37,6.47,14.37,14.37v24.09c.01,7.9-6.46,14.37-14.37,14.37Zm-1.81,62.97c-.44.85-1.42.85-1.86,0-.98-1.9-2.39-5.3-2.39-9.16,0-4.21,1.65-7.85,2.63-9.62.33-.61,1.05-.61,1.38,0,.97,1.78,2.63,5.42,2.63,9.62,0,3.87-1.4,7.26-2.39,9.16h0Zm-17.42-27.23c-.44.85-1.42.85-1.86,0-.98-1.9-2.39-5.3-2.39-9.16,0-4.21,1.65-7.85,2.63-9.62.33-.61,1.05-.61,1.38,0,.97,1.78,2.63,5.42,2.63,9.62,0,3.86-1.4,7.25-2.39,9.16h0Zm-10.31-79.68c0,2.56-2.1,4.67-4.67,4.67h-.71c-2.56,0-4.67-2.1-4.67-4.67v-.3c0-2.56,2.1-4.67,4.67-4.67h.71c2.56,0,4.67,2.1,4.67,4.67v.3Zm-7.11,106.92c-.44.85-1.42.85-1.86,0-.98-1.9-2.39-5.3-2.39-9.16,0-4.21,1.65-7.85,2.63-9.62.33-.61,1.05-.61,1.38,0,.97,1.78,2.63,5.42,2.63,9.62,0,3.87-1.4,7.26-2.39,9.16h0Zm-17.42-27.23c-.44.85-1.42.85-1.86,0-.98-1.9-2.39-5.3-2.39-9.16,0-4.21,1.65-7.85,2.63-9.62.33-.61,1.05-.61,1.38,0,.97,1.78,2.63,5.42,2.63,9.62,0,3.86-1.4,7.25-2.39,9.16h0ZM12.34,22.11c0-5.39,4.39-9.77,9.77-9.77s9.77,4.39,9.77,9.77-4.39,9.77-9.77,9.77-9.77-4.39-9.77-9.77Zm141.73,0c0-12.2-9.9-22.11-22.11-22.11-10.84,0-19.86,7.82-21.73,18.13-7.08-2.75-14.75-4.28-22.76-4.28h-20.87c-8.02,0-15.69,1.53-22.76,4.28C41.96,7.82,32.95,0,22.11,0,9.9,0,0,9.9,0,22.11c0,9.23,5.67,17.14,13.71,20.45-6.52,9.94-10.34,21.8-10.34,34.52v93.18c.01,1.14.12,2.26.18,3.38h146.97c.06-1.13.17-2.24.17-3.38v-93.19c.01-12.72-3.81-24.58-10.33-34.52,8.04-3.31,13.71-11.21,13.71-20.44h0Z"/>
    </g>
  </g>
</svg>